# xmcd
#
# Track frame offsets:
# 150
# 26175
# 52050
# 72685
# 94952
# 123600
# 147790
# 176162
# 194610
# 224495
#
# Disc length: 3260 seconds
#
#
# Revision: 0
# Processed by: cddbd v1.5.2PL0 Copyright (c) Steve Scherf et al.
# Submitted via: FreeRIP 2.951 
#
DISCID=ac0cba0a
DTITLE=Larry Carlton - Best of - 20th century master
DYEAR=1900
DGENRE=Pop
TTITLE0=Smiles and smiles to go
TTITLE1=High stepping
TTITLE2=Sleepwalk
TTITLE3=Minute by minute
TTITLE4=Knock on wood
TTITLE5=Hello tomorrow
TTITLE6=Emotions wound us so
TTITLE7=Layla
TTITLE8=The waffer
TTITLE9=Shop til you drop
EXTD=
EXTT0=
EXTT1=
EXTT2=
EXTT3=
EXTT4=
EXTT5=
EXTT6=
EXTT7=
EXTT8=
EXTT9=
PLAYORDER=
